#N canvas 677 183 478 273 12;
#X obj 319 208 metro 250;
#X msg 334 280 50;
#X obj 304 380 noteout 1;
#X obj 322 240 spigot;
#X obj 382 239 tgl 19 0 empty empty empty 0 -10 0 12 #fcfcfc #000000 #000000 0 1;
#X obj 276 227 bng 19 250 50 0 empty empty empty 0 -10 0 12 #fcfcfc #000000 #000000;
#X obj 501 374 noteout 1;
#X obj 519 234 spigot;
#X obj 579 233 tgl 19 0 empty empty empty 0 -10 0 12 #fcfcfc #000000 #000000 0 1;
#X obj 475 221 bng 19 250 50 0 empty empty empty 0 -10 0 12 #fcfcfc #000000 #000000;
#X obj 516 202 metro 500;
#X obj 738 377 noteout 1;
#X obj 756 237 spigot;
#X obj 816 236 tgl 19 0 empty empty empty 0 -10 0 12 #fcfcfc #000000 #000000 0 1;
#X obj 712 224 bng 19 250 50 0 empty empty empty 0 -10 0 12 #fcfcfc #000000 #000000;
#X obj 928 375 noteout 1;
#X obj 946 235 spigot;
#X obj 1006 234 tgl 19 0 empty empty empty 0 -10 0 12 #fcfcfc #000000 #000000 0 1;
#X obj 902 222 bng 19 250 50 0 empty empty empty 0 -10 0 12 #fcfcfc #000000 #000000;
#X obj 757 204 metro 1000;
#X obj 942 203 metro 2000;
#X msg 797 277 40;
#X msg 549 279 25;
#X obj 932 337 makenote 115 500;
#X msg 1011 288 52;
#X obj 309 341 makenote 65 500;
#X msg 87 142 connect localhost 11111;
#X msg 173 216 disconnect;
#X floatatom 87 385 5 0 0 0 - - - 0;
#X obj 87 332 netsend -u -b;
#X obj 182 280 oscformat /metro250;
#X obj 404 279 oscformat /metro500;
#X obj 632 282 oscformat /metro1000;
#X obj 851 287 oscformat /metro2000;
#X obj 505 336 makenote 115 500;
#X obj 742 339 makenote 100 800;
#X floatatom 497 -8 5 0 0 0 - - - 0;
#X obj 514 -49 key;
#X obj 464 100 tgl 19 0 empty empty empty 0 -10 0 12 #fcfcfc #000000 #000000 0 1;
#X obj 528 81 tgl 19 0 empty empty empty 0 -10 0 12 #fcfcfc #000000 #000000 0 1;
#X obj 582 102 tgl 19 0 empty empty empty 0 -10 0 12 #fcfcfc #000000 #000000 0 1;
#X obj 535 145 tgl 19 0 empty empty empty 0 -10 0 12 #fcfcfc #000000 #000000 0 1;
#X obj 489 27 select 97 119 100 115;
#X connect 0 0 3 0;
#X connect 0 0 5 0;
#X connect 1 0 25 0;
#X connect 3 0 1 0;
#X connect 3 0 30 0;
#X connect 4 0 3 1;
#X connect 7 0 22 0;
#X connect 7 0 31 0;
#X connect 8 0 7 1;
#X connect 10 0 7 0;
#X connect 10 0 9 0;
#X connect 12 0 21 0;
#X connect 12 0 32 0;
#X connect 13 0 12 1;
#X connect 16 0 24 0;
#X connect 16 0 33 0;
#X connect 17 0 16 1;
#X connect 19 0 12 0;
#X connect 19 0 14 0;
#X connect 20 0 16 0;
#X connect 20 0 18 0;
#X connect 21 0 35 0;
#X connect 22 0 34 0;
#X connect 23 0 15 0;
#X connect 23 1 15 1;
#X connect 24 0 23 0;
#X connect 25 0 2 0;
#X connect 25 1 2 1;
#X connect 26 0 29 0;
#X connect 27 0 29 0;
#X connect 29 0 28 0;
#X connect 30 0 29 0;
#X connect 31 0 29 0;
#X connect 32 0 29 0;
#X connect 33 0 29 0;
#X connect 34 0 6 0;
#X connect 34 1 6 1;
#X connect 35 0 11 0;
#X connect 35 1 11 1;
#X connect 36 0 42 0;
#X connect 37 0 36 0;
#X connect 38 0 0 0;
#X connect 39 0 10 0;
#X connect 40 0 20 0;
#X connect 41 0 19 0;
#X connect 42 0 38 0;
#X connect 42 1 39 0;
#X connect 42 2 40 0;
#X connect 42 3 41 0;
